<svg width="25" height="25" viewBox="0 0 25 25" fill="none" xmlns="http://www.w3.org/2000/svg">
<path d="M11.369 7.86922C11.311 7.92572 11.063 8.13906 10.859 8.3378C9.576 9.50292 7.476 12.5424 6.835 14.1332C6.732 14.3748 6.514 14.9856 6.5 15.312C6.5 15.6247 6.572 15.9228 6.718 16.2073C6.922 16.5619 7.243 16.8463 7.622 17.0022C7.885 17.1025 8.672 17.2584 8.686 17.2584C9.547 17.4143 10.946 17.5 12.492 17.5C13.965 17.5 15.307 17.4143 16.181 17.2867C16.195 17.272 17.173 17.1162 17.508 16.9457C18.12 16.633 18.5 16.0222 18.5 15.3685V15.312C18.485 14.8863 18.105 13.991 18.091 13.991C17.449 12.4859 15.452 9.51656 14.125 8.32319C14.125 8.32319 13.784 7.98709 13.571 7.84096C13.265 7.61301 12.886 7.5 12.507 7.5C12.084 7.5 11.69 7.62762 11.369 7.86922Z" fill="white"/>
</svg>
